<svg xmlns="http://www.w3.org/2000/svg" xmlns:xlink="http://www.w3.org/1999/xlink" width="250" zoomAndPan="magnify" viewBox="0 0 187.5 149.999998" height="200" preserveAspectRatio="xMidYMid meet" version="1.0"><defs><g/><clipPath id="210aac3a36"><path d="M 137 38 L 163 38 L 163 60 L 137 60 Z M 137 38 " clip-rule="nonzero"/></clipPath><clipPath id="55727424bf"><path d="M 69.933594 20.136719 L 164.757812 39.335938 L 146.304688 130.484375 L 51.480469 111.289062 Z M 69.933594 20.136719 " clip-rule="nonzero"/></clipPath><clipPath id="941abffcf8"><path d="M 69.933594 20.136719 L 164.757812 39.335938 L 146.304688 130.484375 L 51.480469 111.289062 Z M 69.933594 20.136719 " clip-rule="nonzero"/></clipPath><clipPath id="0e8654ebff"><path d="M 55 53 L 139 53 L 139 113 L 55 113 Z M 55 53 " clip-rule="nonzero"/></clipPath><clipPath id="d9c187643c"><path d="M 69.933594 20.136719 L 164.757812 39.335938 L 146.304688 130.484375 L 51.480469 111.289062 Z M 69.933594 20.136719 " clip-rule="nonzero"/></clipPath><clipPath id="b0db06531f"><path d="M 69.933594 20.136719 L 164.757812 39.335938 L 146.304688 130.484375 L 51.480469 111.289062 Z M 69.933594 20.136719 " clip-rule="nonzero"/></clipPath></defs><g clip-path="url(#210aac3a36)"><g clip-path="url(#55727424bf)"><g clip-path="url(#941abffcf8)"><path fill="#004aad" d="M 158.675781 45.171875 C 157.808594 45.730469 156.882812 46.210938 155.9375 46.679688 C 155.421875 46.933594 155.078125 47.445312 155.035156 48.023438 L 154.90625 49.789062 L 154.925781 49.800781 C 155.578125 49.4375 156.242188 50.644531 155.933594 51.160156 C 155.722656 51.519531 155.105469 51.726562 154.757812 51.921875 C 154.753906 51.925781 154.75 51.929688 154.75 51.933594 L 154.621094 53.695312 C 154.621094 53.695312 154.632812 53.710938 154.640625 53.710938 C 155.214844 53.511719 155.609375 54.503906 155.488281 54.941406 C 155.355469 55.410156 154.855469 55.59375 154.472656 55.8125 C 154.46875 55.8125 154.464844 55.816406 154.464844 55.824219 L 154.296875 58.140625 C 154.28125 58.347656 154.125 58.617188 153.953125 58.730469 L 153.3125 59.164062 C 153.140625 59.28125 152.945312 59.214844 152.878906 59.019531 L 149.777344 50.066406 C 149.726562 49.914062 149.550781 49.84375 149.40625 49.914062 C 147.566406 50.828125 145.839844 51.679688 144.664062 52.261719 C 144.605469 52.292969 144.566406 52.347656 144.554688 52.410156 C 144.46875 52.996094 144.378906 53.582031 144.289062 54.171875 C 144.222656 54.613281 144.175781 55.054688 144.09375 55.492188 C 144.019531 55.890625 143.964844 56.34375 143.597656 56.582031 C 143.285156 56.785156 142.941406 56.949219 142.617188 57.132812 C 142.359375 57.277344 142.085938 57.398438 141.824219 57.191406 C 141.566406 56.992188 141.570312 56.554688 141.515625 56.25 C 141.445312 55.832031 141.375 55.417969 141.304688 55.003906 C 141.207031 54.429688 141.109375 53.859375 141.011719 53.289062 C 140.996094 53.207031 140.914062 53.15625 140.832031 53.1875 C 140.554688 53.296875 140.28125 53.414062 140.003906 53.527344 C 139.761719 53.625 139.488281 53.769531 139.226562 53.773438 C 138.902344 53.777344 138.570312 53.429688 138.742188 53.101562 C 138.855469 52.878906 139.105469 52.777344 139.296875 52.632812 C 139.476562 52.496094 139.65625 52.359375 139.832031 52.21875 C 139.902344 52.164062 139.972656 52.109375 140.046875 52.054688 C 140.113281 52 140.113281 51.902344 140.050781 51.851562 C 139.742188 51.582031 139.4375 51.316406 139.128906 51.046875 C 138.882812 50.835938 138.640625 50.617188 138.390625 50.40625 C 138.117188 50.179688 137.820312 49.953125 137.582031 49.695312 C 137.335938 49.433594 137.40625 49.015625 137.703125 48.839844 C 137.984375 48.671875 138.273438 48.515625 138.554688 48.347656 C 138.730469 48.242188 138.914062 48.144531 139.117188 48.097656 C 139.351562 48.046875 139.523438 48.109375 139.746094 48.179688 C 140.226562 48.335938 140.671875 48.554688 141.136719 48.75 C 141.585938 48.941406 142.039062 49.128906 142.492188 49.316406 C 142.554688 49.339844 142.621094 49.335938 142.675781 49.300781 C 143.753906 48.601562 145.433594 47.515625 147.246094 46.34375 C 147.378906 46.257812 147.410156 46.070312 147.308594 45.945312 L 141.882812 39.234375 C 141.75 39.074219 141.800781 38.871094 141.988281 38.78125 L 142.90625 38.363281 C 143.097656 38.277344 143.410156 38.28125 143.597656 38.375 L 145.128906 39.152344 C 145.128906 39.152344 145.140625 39.15625 145.140625 39.152344 C 145.296875 39.0625 145.453125 38.976562 145.609375 38.886719 C 145.84375 38.753906 146.113281 38.582031 146.390625 38.628906 C 146.890625 38.710938 147.460938 39.679688 147.015625 40.089844 C 147.007812 40.097656 147.011719 40.109375 147.019531 40.113281 L 148.59375 40.910156 C 148.59375 40.910156 148.601562 40.914062 148.605469 40.910156 C 148.984375 40.695312 149.398438 40.363281 149.855469 40.488281 C 150.289062 40.601562 150.933594 41.449219 150.480469 41.851562 C 150.476562 41.855469 150.476562 41.867188 150.484375 41.871094 L 151.722656 42.5 C 152.234375 42.757812 152.84375 42.726562 153.328125 42.414062 C 154.691406 41.53125 156.066406 40.648438 157.570312 40.019531 C 158.769531 39.515625 161.109375 38.585938 162.304688 39.503906 C 164.316406 41.054688 159.832031 44.4375 158.675781 45.179688 Z M 158.675781 45.171875 " fill-opacity="1" fill-rule="nonzero"/></g></g></g><g clip-path="url(#0e8654ebff)"><g clip-path="url(#d9c187643c)"><g clip-path="url(#b0db06531f)"><path fill="#004aad" d="M 58.167969 112.636719 C 58.015625 112.605469 57.886719 112.488281 57.851562 112.328125 C 57.578125 111.164062 57.339844 110.101562 57.125 109.078125 C 57.078125 108.855469 57.222656 108.636719 57.445312 108.585938 C 57.667969 108.539062 57.886719 108.683594 57.933594 108.90625 C 58.144531 109.921875 58.382812 110.976562 58.652344 112.136719 C 58.707031 112.359375 58.570312 112.582031 58.347656 112.636719 C 58.285156 112.648438 58.226562 112.648438 58.167969 112.636719 Z M 56.820312 106.140625 C 56.660156 106.105469 56.527344 105.976562 56.496094 105.804688 C 56.300781 104.671875 56.132812 103.5625 56 102.503906 C 55.96875 102.277344 56.128906 102.066406 56.355469 102.039062 C 56.585938 102.011719 56.789062 102.171875 56.816406 102.398438 C 56.949219 103.445312 57.117188 104.542969 57.308594 105.664062 C 57.347656 105.890625 57.199219 106.105469 56.972656 106.144531 C 56.921875 106.152344 56.867188 106.152344 56.820312 106.144531 Z M 85.441406 106.421875 L 85.375 106.40625 C 85.152344 106.363281 85.011719 106.140625 85.054688 105.914062 C 85.101562 105.691406 85.320312 105.546875 85.539062 105.59375 L 85.601562 105.605469 C 86.601562 105.808594 87.644531 105.851562 88.699219 105.734375 C 88.925781 105.710938 89.128906 105.875 89.15625 106.101562 C 89.179688 106.332031 89.015625 106.535156 88.789062 106.558594 C 87.648438 106.683594 86.519531 106.636719 85.4375 106.417969 Z M 82.308594 105.226562 C 82.265625 105.21875 82.226562 105.203125 82.183594 105.179688 C 81.21875 104.621094 80.316406 103.917969 79.5 103.074219 C 79.34375 102.910156 79.34375 102.648438 79.507812 102.488281 C 79.671875 102.328125 79.933594 102.332031 80.09375 102.496094 C 80.855469 103.277344 81.699219 103.941406 82.597656 104.457031 C 82.796875 104.574219 82.863281 104.828125 82.75 105.027344 C 82.660156 105.183594 82.476562 105.261719 82.308594 105.226562 Z M 55.996094 99.554688 C 55.820312 99.519531 55.679688 99.367188 55.667969 99.175781 C 55.585938 98.035156 55.546875 96.910156 55.542969 95.828125 C 55.542969 95.597656 55.726562 95.414062 55.953125 95.414062 C 56.183594 95.410156 56.367188 95.597656 56.371094 95.824219 C 56.371094 96.886719 56.414062 97.992188 56.492188 99.117188 C 56.507812 99.34375 56.335938 99.542969 56.105469 99.558594 C 56.070312 99.5625 56.03125 99.558594 55.996094 99.550781 Z M 91.859375 105.738281 C 91.726562 105.710938 91.609375 105.621094 91.558594 105.484375 C 91.472656 105.273438 91.574219 105.03125 91.785156 104.945312 C 92.761719 104.550781 93.703125 104.019531 94.578125 103.378906 C 94.761719 103.246094 95.023438 103.285156 95.15625 103.472656 C 95.289062 103.65625 95.25 103.917969 95.0625 104.054688 C 94.132812 104.734375 93.132812 105.292969 92.09375 105.714844 C 92.015625 105.75 91.933594 105.753906 91.855469 105.738281 Z M 77.726562 100.558594 C 77.613281 100.535156 77.511719 100.46875 77.449219 100.359375 C 76.878906 99.375 76.421875 98.324219 76.097656 97.234375 C 76.03125 97.019531 76.15625 96.785156 76.375 96.71875 C 76.59375 96.652344 76.820312 96.777344 76.890625 96.996094 C 77.195312 98.019531 77.625 99.011719 78.164062 99.941406 C 78.28125 100.140625 78.210938 100.394531 78.015625 100.507812 C 77.921875 100.5625 77.820312 100.574219 77.726562 100.554688 Z M 97.160156 101.867188 C 97.097656 101.855469 97.03125 101.824219 96.976562 101.777344 C 96.800781 101.628906 96.78125 101.367188 96.929688 101.191406 C 97.429688 100.597656 97.878906 99.960938 98.253906 99.300781 C 98.402344 99.039062 98.546875 98.773438 98.679688 98.503906 C 98.78125 98.300781 99.027344 98.210938 99.230469 98.316406 C 99.433594 98.417969 99.519531 98.664062 99.417969 98.871094 C 99.277344 99.15625 99.128906 99.441406 98.972656 99.714844 C 98.570312 100.417969 98.09375 101.097656 97.558594 101.730469 C 97.460938 101.847656 97.304688 101.898438 97.160156 101.871094 Z M 55.996094 92.921875 C 55.796875 92.878906 55.652344 92.695312 55.667969 92.484375 C 55.730469 91.660156 55.816406 90.84375 55.929688 90.050781 C 55.972656 89.75 56.019531 89.449219 56.070312 89.148438 C 56.109375 88.925781 56.324219 88.769531 56.546875 88.808594 C 56.773438 88.847656 56.921875 89.0625 56.886719 89.285156 C 56.835938 89.578125 56.789062 89.871094 56.746094 90.164062 C 56.636719 90.941406 56.550781 91.742188 56.488281 92.546875 C 56.472656 92.773438 56.273438 92.945312 56.042969 92.929688 C 56.027344 92.925781 56.011719 92.925781 55.992188 92.921875 Z M 75.84375 94.261719 C 75.664062 94.222656 75.523438 94.070312 75.511719 93.878906 C 75.449219 92.773438 75.496094 91.628906 75.65625 90.484375 C 75.683594 90.257812 75.894531 90.101562 76.121094 90.132812 C 76.34375 90.164062 76.503906 90.375 76.472656 90.601562 C 76.320312 91.691406 76.273438 92.777344 76.335938 93.832031 C 76.351562 94.058594 76.175781 94.257812 75.949219 94.273438 C 75.910156 94.273438 75.875 94.273438 75.839844 94.265625 Z M 100.105469 95.980469 C 100.105469 95.980469 100.09375 95.976562 100.085938 95.976562 C 99.863281 95.921875 99.730469 95.695312 99.789062 95.472656 C 99.851562 95.222656 99.910156 94.964844 99.960938 94.707031 C 100.121094 93.917969 100.230469 93.101562 100.28125 92.269531 C 100.292969 92.042969 100.488281 91.867188 100.71875 91.882812 C 100.945312 91.894531 101.117188 92.09375 101.105469 92.320312 C 101.050781 93.1875 100.9375 94.046875 100.773438 94.871094 C 100.71875 95.144531 100.65625 95.414062 100.589844 95.679688 C 100.535156 95.894531 100.320312 96.027344 100.105469 95.984375 Z M 57.121094 86.386719 C 57.121094 86.386719 57.101562 86.382812 57.089844 86.378906 C 56.871094 86.316406 56.742188 86.089844 56.804688 85.867188 C 57.109375 84.78125 57.472656 83.707031 57.882812 82.679688 C 57.96875 82.464844 58.207031 82.363281 58.421875 82.449219 C 58.632812 82.535156 58.734375 82.777344 58.648438 82.988281 C 58.246094 83.988281 57.894531 85.03125 57.601562 86.089844 C 57.542969 86.300781 57.332031 86.425781 57.121094 86.386719 Z M 76.730469 87.714844 C 76.714844 87.710938 76.699219 87.707031 76.683594 87.703125 C 76.464844 87.632812 76.347656 87.398438 76.417969 87.179688 C 76.753906 86.128906 77.183594 85.078125 77.695312 84.050781 C 77.796875 83.847656 78.042969 83.761719 78.25 83.863281 C 78.453125 83.96875 78.535156 84.214844 78.433594 84.421875 C 77.941406 85.410156 77.527344 86.421875 77.203125 87.433594 C 77.136719 87.640625 76.933594 87.757812 76.730469 87.714844 Z M 100.535156 89.382812 C 100.363281 89.347656 100.226562 89.203125 100.207031 89.019531 C 100.097656 87.953125 99.902344 86.878906 99.628906 85.820312 C 99.570312 85.597656 99.703125 85.371094 99.925781 85.3125 C 100.144531 85.253906 100.371094 85.390625 100.425781 85.609375 C 100.710938 86.707031 100.914062 87.828125 101.027344 88.933594 C 101.050781 89.160156 100.886719 89.367188 100.660156 89.390625 C 100.613281 89.394531 100.574219 89.394531 100.535156 89.386719 Z M 59.59375 80.234375 C 59.554688 80.226562 59.515625 80.210938 59.476562 80.1875 C 59.277344 80.078125 59.203125 79.828125 59.3125 79.628906 C 59.859375 78.625 60.464844 77.664062 61.109375 76.773438 C 61.246094 76.589844 61.503906 76.546875 61.6875 76.683594 C 61.871094 76.820312 61.910156 77.078125 61.773438 77.265625 C 61.148438 78.125 60.566406 79.054688 60.035156 80.027344 C 59.945312 80.191406 59.765625 80.269531 59.589844 80.234375 Z M 79.660156 81.78125 C 79.609375 81.769531 79.558594 81.75 79.511719 81.71875 C 79.324219 81.589844 79.273438 81.332031 79.402344 81.140625 C 79.472656 81.042969 79.539062 80.941406 79.605469 80.84375 C 80.179688 80.027344 80.816406 79.238281 81.492188 78.492188 C 81.644531 78.320312 81.90625 78.308594 82.078125 78.464844 C 82.246094 78.621094 82.257812 78.882812 82.101562 79.050781 C 81.449219 79.773438 80.835938 80.535156 80.28125 81.324219 C 80.214844 81.417969 80.148438 81.515625 80.082031 81.609375 C 79.988281 81.753906 79.816406 81.816406 79.660156 81.785156 Z M 98.882812 82.980469 C 98.753906 82.953125 98.640625 82.867188 98.585938 82.734375 C 98.167969 81.742188 97.675781 80.761719 97.121094 79.828125 C 97.003906 79.632812 97.070312 79.378906 97.265625 79.257812 C 97.460938 79.140625 97.714844 79.207031 97.832031 79.402344 C 98.40625 80.367188 98.914062 81.382812 99.347656 82.410156 C 99.4375 82.621094 99.339844 82.867188 99.128906 82.953125 C 99.046875 82.988281 98.964844 82.996094 98.886719 82.980469 Z M 63.492188 74.886719 C 63.417969 74.871094 63.34375 74.835938 63.285156 74.777344 C 63.121094 74.617188 63.121094 74.355469 63.277344 74.1875 C 64.074219 73.371094 64.925781 72.621094 65.816406 71.960938 C 66 71.824219 66.257812 71.863281 66.394531 72.046875 C 66.53125 72.230469 66.492188 72.492188 66.308594 72.625 C 65.453125 73.261719 64.632812 73.984375 63.871094 74.769531 C 63.769531 74.875 63.625 74.914062 63.492188 74.886719 Z M 84.109375 76.886719 C 84.019531 76.867188 83.933594 76.820312 83.871094 76.746094 C 83.726562 76.566406 83.753906 76.304688 83.925781 76.160156 C 84.796875 75.4375 85.71875 74.773438 86.664062 74.191406 C 86.859375 74.074219 87.113281 74.132812 87.230469 74.332031 C 87.351562 74.527344 87.289062 74.78125 87.09375 74.902344 C 86.183594 75.464844 85.292969 76.101562 84.453125 76.800781 C 84.355469 76.886719 84.226562 76.910156 84.109375 76.886719 Z M 95.515625 77.296875 C 95.421875 77.277344 95.335938 77.230469 95.273438 77.152344 C 94.597656 76.300781 93.863281 75.492188 93.082031 74.75 C 92.917969 74.589844 92.910156 74.328125 93.070312 74.160156 C 93.226562 73.996094 93.488281 73.988281 93.652344 74.144531 C 94.460938 74.917969 95.222656 75.75 95.921875 76.632812 C 96.0625 76.808594 96.035156 77.070312 95.855469 77.214844 C 95.757812 77.296875 95.628906 77.320312 95.515625 77.296875 Z M 68.789062 70.957031 C 68.667969 70.933594 68.5625 70.855469 68.503906 70.734375 C 68.398438 70.53125 68.480469 70.28125 68.683594 70.179688 C 69.679688 69.675781 70.730469 69.246094 71.808594 68.90625 C 72.027344 68.835938 72.257812 68.960938 72.324219 69.179688 C 72.390625 69.394531 72.273438 69.628906 72.054688 69.695312 C 71.015625 70.023438 70.007812 70.433594 69.054688 70.917969 C 68.96875 70.960938 68.875 70.972656 68.789062 70.957031 Z M 89.742188 73.441406 C 89.609375 73.414062 89.496094 73.324219 89.441406 73.191406 C 89.351562 72.980469 89.453125 72.734375 89.664062 72.648438 C 89.847656 72.574219 90.03125 72.5 90.21875 72.429688 C 89.441406 71.898438 88.632812 71.417969 87.808594 71 C 87.605469 70.894531 87.523438 70.644531 87.625 70.441406 C 87.730469 70.238281 87.980469 70.15625 88.183594 70.257812 C 89.171875 70.761719 90.140625 71.347656 91.058594 72.003906 C 91.09375 72.027344 91.125 72.058594 91.148438 72.097656 C 91.722656 71.90625 92.300781 71.746094 92.871094 71.613281 C 93.09375 71.5625 93.316406 71.703125 93.367188 71.925781 C 93.417969 72.148438 93.277344 72.371094 93.054688 72.421875 C 92.023438 72.65625 90.988281 72.992188 89.976562 73.417969 C 89.898438 73.449219 89.816406 73.457031 89.738281 73.441406 Z M 75.070312 68.96875 C 74.902344 68.9375 74.769531 68.800781 74.742188 68.621094 C 74.710938 68.394531 74.867188 68.183594 75.09375 68.152344 C 76.199219 67.988281 77.328125 67.910156 78.449219 67.914062 C 78.679688 67.917969 78.863281 68.101562 78.863281 68.332031 C 78.859375 68.5625 78.675781 68.746094 78.445312 68.746094 C 77.363281 68.738281 76.277344 68.816406 75.214844 68.972656 C 75.164062 68.980469 75.117188 68.980469 75.070312 68.96875 Z M 84.867188 69.769531 C 84.851562 69.769531 84.835938 69.765625 84.820312 69.757812 C 84.082031 69.523438 83.320312 69.320312 82.550781 69.167969 C 82.265625 69.109375 81.964844 69.054688 81.671875 69.007812 C 81.445312 68.96875 81.292969 68.757812 81.328125 68.535156 C 81.367188 68.308594 81.578125 68.15625 81.800781 68.191406 C 82.105469 68.238281 82.410156 68.292969 82.710938 68.351562 L 82.71875 68.355469 C 83.515625 68.515625 84.308594 68.726562 85.074219 68.972656 C 85.289062 69.039062 85.410156 69.273438 85.339844 69.492188 C 85.273438 69.695312 85.070312 69.816406 84.867188 69.773438 Z M 96.15625 72 C 95.972656 71.964844 95.832031 71.804688 95.824219 71.609375 C 95.820312 71.378906 96 71.1875 96.226562 71.179688 C 97.320312 71.148438 98.410156 71.222656 99.46875 71.40625 L 99.597656 71.429688 C 99.832031 71.472656 99.972656 71.683594 99.933594 71.910156 C 99.890625 72.132812 99.679688 72.285156 99.453125 72.242188 L 99.328125 72.21875 C 98.320312 72.046875 97.285156 71.976562 96.246094 72.011719 C 96.214844 72.011719 96.183594 72.007812 96.152344 72 Z M 105.835938 73.914062 L 105.832031 73.910156 C 104.835938 73.699219 103.847656 73.40625 102.886719 73.125 L 102.609375 73.042969 C 102.390625 72.976562 102.265625 72.746094 102.332031 72.527344 C 102.394531 72.308594 102.625 72.179688 102.84375 72.246094 L 103.121094 72.328125 C 104.0625 72.605469 105.039062 72.894531 106.003906 73.097656 C 106.226562 73.144531 106.367188 73.367188 106.320312 73.589844 C 106.277344 73.816406 106.054688 73.957031 105.835938 73.914062 Z M 109.117188 74.234375 C 108.929688 74.195312 108.792969 74.035156 108.785156 73.839844 C 108.777344 73.609375 108.957031 73.417969 109.183594 73.410156 C 110.21875 73.375 111.277344 73.191406 112.332031 72.878906 C 112.550781 72.816406 112.777344 72.941406 112.84375 73.160156 C 112.90625 73.378906 112.78125 73.609375 112.566406 73.675781 C 111.445312 74.007812 110.316406 74.199219 109.210938 74.238281 C 109.179688 74.238281 109.148438 74.238281 109.117188 74.230469 Z M 115.414062 72.414062 C 115.296875 72.390625 115.191406 72.316406 115.128906 72.203125 C 115.023438 72 115.101562 71.75 115.300781 71.640625 C 116.199219 71.160156 117.125 70.574219 118.046875 69.898438 C 118.230469 69.765625 118.488281 69.804688 118.625 69.988281 C 118.757812 70.171875 118.71875 70.433594 118.535156 70.570312 C 117.578125 71.269531 116.625 71.878906 115.691406 72.375 C 115.601562 72.421875 115.503906 72.433594 115.414062 72.414062 Z M 120.773438 68.539062 C 120.6875 68.523438 120.609375 68.480469 120.546875 68.410156 C 120.394531 68.242188 120.40625 67.980469 120.578125 67.828125 C 121.34375 67.132812 122.117188 66.386719 122.9375 65.535156 C 123.097656 65.371094 123.355469 65.367188 123.519531 65.527344 C 123.683594 65.6875 123.6875 65.949219 123.527344 66.113281 C 122.695312 66.976562 121.910156 67.738281 121.128906 68.445312 C 121.027344 68.535156 120.894531 68.566406 120.773438 68.539062 Z M 125.492188 63.882812 C 125.410156 63.867188 125.335938 63.824219 125.273438 63.761719 C 125.117188 63.59375 125.125 63.332031 125.289062 63.175781 C 126.097656 62.410156 126.910156 61.6875 127.78125 60.953125 C 127.957031 60.808594 128.21875 60.832031 128.363281 61.007812 C 128.507812 61.183594 128.488281 61.445312 128.3125 61.589844 C 127.453125 62.3125 126.648438 63.027344 125.855469 63.777344 C 125.753906 63.871094 125.617188 63.910156 125.488281 63.882812 Z M 130.558594 59.617188 C 130.464844 59.597656 130.375 59.542969 130.308594 59.460938 C 130.171875 59.277344 130.210938 59.019531 130.390625 58.878906 C 131.214844 58.253906 132.097656 57.617188 133.082031 56.921875 C 133.269531 56.792969 133.527344 56.835938 133.660156 57.023438 C 133.789062 57.210938 133.746094 57.472656 133.558594 57.601562 C 132.582031 58.289062 131.707031 58.925781 130.890625 59.542969 C 130.792969 59.617188 130.671875 59.640625 130.558594 59.617188 Z M 135.96875 55.792969 C 135.863281 55.773438 135.769531 55.714844 135.707031 55.617188 C 135.578125 55.425781 135.628906 55.167969 135.824219 55.042969 C 136.332031 54.699219 136.851562 54.351562 137.386719 53.996094 C 137.578125 53.867188 137.832031 53.921875 137.960938 54.109375 C 138.085938 54.304688 138.035156 54.5625 137.84375 54.6875 C 137.308594 55.042969 136.789062 55.390625 136.28125 55.730469 C 136.1875 55.796875 136.074219 55.816406 135.96875 55.792969 Z M 135.96875 55.792969 " fill-opacity="1" fill-rule="nonzero"/></g></g></g><g fill="#004aad" fill-opacity="1"><g transform="translate(1.911287, 89.913932)"><g><path d="M 35.96875 -16.03125 C 35.96875 -15.914062 35.90625 -15.078125 35.78125 -13.515625 L 11.34375 -13.515625 C 11.789062 -11.515625 12.832031 -9.929688 14.46875 -8.765625 C 16.113281 -7.609375 18.15625 -7.03125 20.59375 -7.03125 C 22.28125 -7.03125 23.769531 -7.28125 25.0625 -7.78125 C 26.363281 -8.28125 27.578125 -9.066406 28.703125 -10.140625 L 33.6875 -4.75 C 30.644531 -1.257812 26.203125 0.484375 20.359375 0.484375 C 16.710938 0.484375 13.488281 -0.222656 10.6875 -1.640625 C 7.882812 -3.066406 5.722656 -5.039062 4.203125 -7.5625 C 2.679688 -10.082031 1.921875 -12.945312 1.921875 -16.15625 C 1.921875 -19.3125 2.671875 -22.160156 4.171875 -24.703125 C 5.671875 -27.242188 7.734375 -29.222656 10.359375 -30.640625 C 12.984375 -32.066406 15.914062 -32.78125 19.15625 -32.78125 C 22.320312 -32.78125 25.179688 -32.097656 27.734375 -30.734375 C 30.296875 -29.378906 32.304688 -27.429688 33.765625 -24.890625 C 35.234375 -22.347656 35.96875 -19.394531 35.96875 -16.03125 Z M 19.21875 -25.703125 C 17.09375 -25.703125 15.304688 -25.097656 13.859375 -23.890625 C 12.421875 -22.691406 11.546875 -21.050781 11.234375 -18.96875 L 27.140625 -18.96875 C 26.816406 -21.007812 25.9375 -22.640625 24.5 -23.859375 C 23.0625 -25.085938 21.300781 -25.703125 19.21875 -25.703125 Z M 19.21875 -25.703125 "/></g></g></g><g fill="#00bf63" fill-opacity="1"><g transform="translate(39.812972, 89.676501)"><g><path d="M 2.234375 -14.75 L 14.375 -14.75 L 14.375 -9.390625 L 2.234375 -9.390625 Z M 2.234375 -14.75 "/></g></g></g><g fill="#00bf63" fill-opacity="1"><g transform="translate(56.363986, 89.676501)"><g><path d="M 17.96875 -1.109375 C 17.3125 -0.628906 16.503906 -0.265625 15.546875 -0.015625 C 14.585938 0.222656 13.582031 0.34375 12.53125 0.34375 C 9.78125 0.34375 7.65625 -0.351562 6.15625 -1.75 C 4.65625 -3.15625 3.90625 -5.21875 3.90625 -7.9375 L 3.90625 -17.40625 L 0.34375 -17.40625 L 0.34375 -22.5625 L 3.90625 -22.5625 L 3.90625 -28.171875 L 10.59375 -28.171875 L 10.59375 -22.5625 L 16.34375 -22.5625 L 16.34375 -17.40625 L 10.59375 -17.40625 L 10.59375 -8.015625 C 10.59375 -7.046875 10.84375 -6.296875 11.34375 -5.765625 C 11.84375 -5.234375 12.550781 -4.96875 13.46875 -4.96875 C 14.519531 -4.96875 15.421875 -5.253906 16.171875 -5.828125 Z M 17.96875 -1.109375 "/></g></g></g><g fill="#00bf63" fill-opacity="1"><g transform="translate(75.01604, 89.676501)"><g><path d="M 9.484375 -20.03125 C 10.285156 -21.144531 11.363281 -21.988281 12.71875 -22.5625 C 14.070312 -23.132812 15.632812 -23.421875 17.40625 -23.421875 L 17.40625 -17.234375 C 16.664062 -17.296875 16.164062 -17.328125 15.90625 -17.328125 C 13.988281 -17.328125 12.488281 -16.789062 11.40625 -15.71875 C 10.320312 -14.644531 9.78125 -13.035156 9.78125 -10.890625 L 9.78125 0 L 3.09375 0 L 3.09375 -23.078125 L 9.484375 -23.078125 Z M 9.484375 -20.03125 "/></g></g></g><g fill="#00bf63" fill-opacity="1"><g transform="translate(93.496576, 89.676501)"><g><path d="M 12.390625 -23.421875 C 15.960938 -23.421875 18.707031 -22.566406 20.625 -20.859375 C 22.539062 -19.160156 23.5 -16.597656 23.5 -13.171875 L 23.5 0 L 17.234375 0 L 17.234375 -2.875 C 15.984375 -0.726562 13.640625 0.34375 10.203125 0.34375 C 8.429688 0.34375 6.894531 0.046875 5.59375 -0.546875 C 4.289062 -1.148438 3.296875 -1.976562 2.609375 -3.03125 C 1.929688 -4.09375 1.59375 -5.296875 1.59375 -6.640625 C 1.59375 -8.785156 2.398438 -10.472656 4.015625 -11.703125 C 5.628906 -12.929688 8.125 -13.546875 11.5 -13.546875 L 16.8125 -13.546875 C 16.8125 -15.003906 16.367188 -16.125 15.484375 -16.90625 C 14.597656 -17.695312 13.269531 -18.09375 11.5 -18.09375 C 10.269531 -18.09375 9.0625 -17.898438 7.875 -17.515625 C 6.6875 -17.128906 5.675781 -16.609375 4.84375 -15.953125 L 2.4375 -20.625 C 3.695312 -21.507812 5.207031 -22.195312 6.96875 -22.6875 C 8.726562 -23.175781 10.535156 -23.421875 12.390625 -23.421875 Z M 11.875 -4.15625 C 13.019531 -4.15625 14.035156 -4.421875 14.921875 -4.953125 C 15.804688 -5.484375 16.4375 -6.265625 16.8125 -7.296875 L 16.8125 -9.65625 L 12.21875 -9.65625 C 9.476562 -9.65625 8.109375 -8.753906 8.109375 -6.953125 C 8.109375 -6.085938 8.441406 -5.40625 9.109375 -4.90625 C 9.785156 -4.40625 10.707031 -4.15625 11.875 -4.15625 Z M 11.875 -4.15625 "/></g></g></g><g fill="#00bf63" fill-opacity="1"><g transform="translate(119.952461, 89.676501)"><g><path d="M 25.984375 -23.078125 L 16.25 0 L 9.34375 0 L -0.34375 -23.078125 L 6.5625 -23.078125 L 12.953125 -7.375 L 19.5625 -23.078125 Z M 25.984375 -23.078125 "/></g></g></g><g fill="#00bf63" fill-opacity="1"><g transform="translate(145.59366, 89.676501)"><g><path d="M 25.6875 -11.453125 C 25.6875 -11.367188 25.644531 -10.769531 25.5625 -9.65625 L 8.109375 -9.65625 C 8.421875 -8.21875 9.160156 -7.082031 10.328125 -6.25 C 11.503906 -5.425781 12.96875 -5.015625 14.71875 -5.015625 C 15.914062 -5.015625 16.976562 -5.191406 17.90625 -5.546875 C 18.832031 -5.910156 19.695312 -6.476562 20.5 -7.25 L 24.0625 -3.390625 C 21.882812 -0.898438 18.710938 0.34375 14.546875 0.34375 C 11.941406 0.34375 9.632812 -0.160156 7.625 -1.171875 C 5.625 -2.191406 4.082031 -3.601562 3 -5.40625 C 1.914062 -7.207031 1.375 -9.25 1.375 -11.53125 C 1.375 -13.789062 1.910156 -15.828125 2.984375 -17.640625 C 4.054688 -19.460938 5.523438 -20.878906 7.390625 -21.890625 C 9.265625 -22.910156 11.363281 -23.421875 13.6875 -23.421875 C 15.945312 -23.421875 17.988281 -22.929688 19.8125 -21.953125 C 21.644531 -20.984375 23.082031 -19.585938 24.125 -17.765625 C 25.164062 -15.953125 25.6875 -13.847656 25.6875 -11.453125 Z M 13.71875 -18.359375 C 12.207031 -18.359375 10.9375 -17.925781 9.90625 -17.0625 C 8.875 -16.207031 8.242188 -15.035156 8.015625 -13.546875 L 19.390625 -13.546875 C 19.160156 -15.003906 18.53125 -16.171875 17.5 -17.046875 C 16.46875 -17.921875 15.207031 -18.359375 13.71875 -18.359375 Z M 13.71875 -18.359375 "/></g></g></g><g fill="#00bf63" fill-opacity="1"><g transform="translate(172.649843, 89.676501)"><g><path d="M 3.09375 -31.828125 L 9.78125 -31.828125 L 9.78125 0 L 3.09375 0 Z M 3.09375 -31.828125 "/></g></g></g></svg>